<svg width="57" height="65" viewBox="0 0 57 65" fill="none" xmlns="http://www.w3.org/2000/svg">
<path d="M8.21574 64.0013C7.04162 63.595 5.7753 63.359 4.71183 62.7527C0.868289 60.5649 -0.872909 56.2582 0.425689 51.9623C1.9502 46.9148 3.43936 41.8376 5.32502 36.9245C7.70245 30.7285 12.3958 27.264 18.8919 26.3639C19.0133 26.3467 19.1347 26.3326 19.2561 26.3092C19.293 26.3014 19.3237 26.267 19.3606 26.242C18.7751 25.4528 18.1466 24.6934 17.6133 23.8698C16.3101 21.8555 15.6323 19.6146 15.6185 17.2112C15.6062 15.0906 15.5355 12.9404 15.8398 10.8557C16.6205 5.52071 20.7207 1.33895 25.9612 0.256006C31.5459 -0.898823 37.1922 1.93121 39.8139 7.17404C40.8943 9.33211 41.4429 11.6105 41.4045 14.028C41.3784 15.6501 41.426 17.2893 41.2232 18.8911C40.8866 21.5633 39.7064 23.8776 37.8883 25.8466C37.8038 25.9373 37.7239 26.0326 37.6455 26.1279C37.6347 26.142 37.6363 26.1685 37.6194 26.267C38.208 26.3592 38.8027 26.4233 39.3852 26.5498C45.4601 27.8766 49.7417 31.4348 51.864 37.3809C53.6067 42.2658 55.182 47.2196 56.6312 52.2014C58.1756 57.513 54.6917 62.9137 49.316 63.8606C49.1377 63.8919 48.9625 63.9513 48.7873 63.9966C35.2635 64.0013 21.7396 64.0013 8.21574 64.0013ZM11.901 60.3665C11.901 59.9352 11.901 59.707 11.901 59.4804C11.9025 53.9813 11.8933 48.4822 11.9071 42.9831C11.9164 39.5952 14.2615 37.1433 17.5626 37.1324C24.8547 37.1058 32.1484 37.1199 39.4405 37.1277C40.6776 37.1293 41.8241 37.4668 42.8276 38.2325C44.4074 39.4358 45.0959 41.0782 45.0975 43.0472C45.1021 48.5463 45.1005 54.0454 45.1021 59.5445C45.1021 59.7648 45.1021 59.9867 45.1021 60.2321C46.2024 60.2321 47.2229 60.2461 48.2433 60.2243C48.566 60.218 48.8918 60.1352 49.2069 60.0524C52.0407 59.3085 54.1339 56.1378 52.9521 52.5952C51.4675 48.1462 50.0813 43.6629 48.629 39.2014C46.8878 33.8523 42.2544 30.1347 36.9463 30.0378C31.3154 29.9346 25.6769 29.9081 20.0476 30.055C15.8905 30.1628 12.5849 32.1568 10.1291 35.5822C8.88579 37.3152 8.32332 39.342 7.68708 41.3407C6.42844 45.2959 5.09296 49.2292 3.90962 53.2078C3.04594 56.1128 4.74103 59.2023 7.62561 59.9617C8.96724 60.3133 10.4134 60.2399 11.901 60.3665ZM41.4107 60.2274C41.4107 59.968 41.4107 59.7633 41.4107 59.5586C41.4107 54.1032 41.4107 48.6463 41.4107 43.1909C41.4107 41.5595 40.7376 40.875 39.1362 40.875C32.05 40.875 24.9653 40.875 17.8792 40.875C16.2609 40.875 15.5924 41.547 15.5924 43.1722C15.5924 48.6275 15.5924 54.0845 15.5924 59.5398C15.5924 59.7617 15.5924 59.9836 15.5924 60.2274C24.2185 60.2274 32.7708 60.2274 41.4107 60.2274ZM19.5466 18.7442C19.9077 21.9274 23.2795 26.3717 28.7643 26.2389C33.0505 26.1342 37.4611 22.2806 37.4611 18.6207C34.8178 18.0816 32.7907 16.6283 31.403 14.2155C29.8001 15.8142 28.0067 17.0159 25.9412 17.8019C23.8742 18.5864 21.7319 18.8005 19.5466 18.7442ZM19.3253 14.9828C21.0112 15.0406 22.634 14.9547 24.2139 14.4265C26.8495 13.5467 28.8796 11.8996 30.3334 9.50089C30.5455 9.15084 30.7806 8.78048 31.091 8.53045C32.236 7.61159 33.8127 8.40075 34.0356 9.93688C34.1477 10.7104 34.263 11.5183 34.5796 12.2168C35.1835 13.5514 36.2409 14.4155 37.7008 14.8047C37.8084 12.8404 37.518 11.0354 36.7357 9.31961C34.22 3.79081 27.8177 2.0281 23.0167 5.60666C19.9262 7.91163 19.0041 11.1777 19.3253 14.9828Z" fill="#FF5B37"/>
<path d="M28.5569 49.0004C29.7218 49.0004 30.8882 48.9911 32.0531 49.0036C33.2103 49.0145 34.0156 49.7787 34.0294 50.8522C34.0432 51.9446 33.2164 52.7431 32.0331 52.7478C29.6818 52.7572 27.3305 52.7572 24.9792 52.7478C23.7882 52.7431 22.9675 51.9602 22.9737 50.8647C22.9798 49.7662 23.7928 49.0114 24.9992 49.0036C26.184 48.9942 27.3705 49.0004 28.5569 49.0004Z" fill="#FF5B37"/>
</svg>
