<svg width="52" height="61" viewBox="0 0 52 61" fill="none" xmlns="http://www.w3.org/2000/svg">
<path d="M5.70607 60.9954C5.14222 60.8261 4.54895 60.7206 4.01763 60.4783C1.56863 59.3634 0.230278 57.4427 0.0211598 54.7487C-0.0144676 54.2953 0.00566963 53.8356 0.00566963 53.3791C0.00566963 40.277 0.00412061 27.1718 0.00721865 14.0681C0.00721865 10.9487 1.76845 8.35245 4.60781 7.5885C5.8052 7.26708 7.11103 7.31832 8.36883 7.27484C8.89085 7.25621 9.19446 7.1413 9.50271 6.67393C10.4089 5.30129 11.7596 4.66622 13.3908 4.64914C14.8159 4.63361 16.2394 4.64603 17.7327 4.64603C17.838 3.01564 18.4932 1.68649 19.8455 0.775023C20.6712 0.219138 21.6037 -0.0510408 22.6012 0.00796379C25.0162 0.150817 26.3979 1.56537 27.1011 4.64603C27.2901 4.64603 27.4992 4.64603 27.7068 4.64603C28.8949 4.64603 30.083 4.64448 31.2726 4.64603C33.0958 4.64759 34.5147 5.38359 35.5092 6.941C35.6161 7.1087 35.9073 7.22981 36.1211 7.24379C37.3231 7.32608 38.5592 7.21428 39.7241 7.45496C42.6332 8.05122 44.7228 10.576 44.7708 13.579C44.8436 18.1239 44.7925 22.6719 44.8033 27.2184C44.8049 27.6718 44.5942 27.8007 44.1822 27.7929C43.3906 27.7774 42.596 27.7572 41.806 27.7991C41.2189 27.8286 41.064 27.5926 41.0656 27.0367C41.0826 22.807 41.0764 18.5789 41.0718 14.3492C41.0718 13.9532 41.0625 13.5495 40.9881 13.1644C40.7836 12.1132 39.8837 11.2437 38.8148 11.0573C38.4276 10.9906 38.0264 11.0108 37.6329 10.9704C36.5579 10.8617 35.7292 10.9719 35.0817 12.1303C34.3846 13.3787 33.0215 13.9097 31.5763 13.9144C25.4561 13.9346 19.3359 13.947 13.2157 13.9082C11.3879 13.8973 10.0278 12.9765 9.15109 11.3524C9.06434 11.1924 8.85987 10.9968 8.70342 10.9906C7.93201 10.958 7.15595 10.9378 6.38763 10.9999C4.89438 11.1226 3.93708 12.0884 3.7543 13.5883C3.72332 13.843 3.71867 14.1023 3.71867 14.36C3.71712 27.5429 3.71402 40.7273 3.72797 53.9102C3.72797 54.4738 3.78528 55.0841 3.99904 55.5934C4.49938 56.7797 5.50314 57.2734 6.7594 57.2781C8.32391 57.2828 9.88842 57.2797 11.4529 57.2797C20.2669 57.2797 29.0808 57.2812 37.8947 57.2781C39.9332 57.2781 41.0532 56.1539 41.0733 54.1136C41.0779 53.6975 41.0981 53.2782 41.0686 52.8636C41.0299 52.3186 41.2452 52.123 41.792 52.1494C42.6022 52.1882 43.4154 52.1649 44.2271 52.1571C44.5416 52.154 44.8049 52.2223 44.7894 52.595C44.7429 53.7021 44.8312 54.8449 44.5849 55.9086C43.9452 58.6632 42.1421 60.3122 39.374 60.8914C39.2811 60.91 39.1959 60.9612 39.106 60.9969C27.9732 60.9954 16.8404 60.9954 5.70607 60.9954ZM22.3921 6.43791C23.3742 6.44257 24.1719 5.66774 24.1952 4.68796C24.22 3.69575 23.4021 2.85571 22.4107 2.85105C21.424 2.84639 20.5891 3.68643 20.603 4.66932C20.6154 5.64445 21.4147 6.43325 22.3921 6.43791Z" fill="#FF5B37"/>
<path d="M36.0389 34.8954C36.0389 38.3316 36.0389 41.6809 36.0389 45.069C39.4189 45.069 42.774 45.069 46.2082 45.069C46.2082 44.1684 46.1803 43.3004 46.2222 42.4355C46.2377 42.125 46.3507 41.7694 46.5366 41.5256C47.3762 40.42 48.2498 39.3409 49.1297 38.2664C49.2521 38.1158 49.4674 38.0428 49.6409 37.9341C49.7152 38.1235 49.8546 38.313 49.8562 38.5024C49.8701 40.8657 49.8965 43.229 49.8546 45.5907C49.8205 47.5316 48.5984 48.7459 46.6652 48.7599C42.9615 48.7878 39.2562 48.7878 35.5525 48.7599C33.5775 48.7443 32.3476 47.4618 32.3414 45.4789C32.3321 41.8253 32.3321 38.1717 32.3414 34.518C32.346 32.4901 33.6302 31.2169 35.6609 31.2107C38.474 31.2029 41.287 31.2045 44.1 31.2169C44.3138 31.2184 44.5275 31.338 44.7413 31.4032C44.6546 31.6097 44.605 31.8458 44.4733 32.0166C43.8336 32.8504 43.1938 33.6858 42.503 34.4777C42.314 34.6951 41.9515 34.8705 41.6665 34.8767C39.8077 34.9124 37.9488 34.8954 36.0389 34.8954Z" fill="#FF5B37"/>
<path d="M22.3641 21.8259C18.3026 21.8259 14.2411 21.8275 10.1811 21.8243C9.20674 21.8243 8.71725 21.5107 8.53446 20.7949C8.34393 20.0496 8.77146 19.3322 9.51964 19.1723C9.76903 19.1195 10.0293 19.0977 10.2849 19.0977C18.3676 19.0946 26.4504 19.0946 34.5332 19.0962C35.5804 19.0962 36.1055 19.4254 36.2759 20.1691C36.4525 20.9424 35.98 21.6644 35.1993 21.7871C34.9468 21.8275 34.6866 21.8243 34.4294 21.8243C30.4066 21.8275 26.3854 21.8259 22.3641 21.8259Z" fill="#FF5B37"/>
<path d="M22.3641 26.9251C18.2825 26.9251 14.2023 26.9267 10.1207 26.9236C9.2083 26.9236 8.71106 26.5928 8.53138 25.8894C8.3455 25.1612 8.7343 24.4718 9.46079 24.2839C9.72567 24.2156 10.0076 24.1923 10.2818 24.1923C18.3646 24.1876 26.4474 24.1876 34.5301 24.1923C34.8043 24.1923 35.0862 24.2187 35.3511 24.287C35.9258 24.4345 36.3332 24.978 36.3378 25.5525C36.3425 26.096 35.963 26.6565 35.4239 26.818C35.1451 26.9003 34.8399 26.9205 34.5456 26.9205C30.4872 26.9267 26.4257 26.9251 22.3641 26.9251Z" fill="#FF5B37"/>
<path d="M41.2451 39.6624C42.5246 38.0568 43.7468 36.5242 44.969 34.9917C46.2794 33.3473 47.593 31.706 48.8957 30.057C49.2288 29.6362 49.599 29.2946 50.1597 29.262C50.7809 29.2263 51.2998 29.4375 51.6019 30.0089C51.9303 30.6315 51.8606 31.2371 51.4222 31.7883C49.8794 33.7293 48.3334 35.6671 46.7891 37.6065C45.4058 39.344 44.021 41.0816 42.6377 42.8191C41.699 43.9976 40.6735 43.9899 39.7751 42.7958C38.9758 41.7337 38.1765 40.6716 37.3865 39.6033C36.7607 38.7571 36.8351 37.8146 37.5554 37.2835C38.2788 36.7494 39.1989 36.9481 39.8278 37.7789C40.2816 38.3782 40.7324 38.9791 41.2451 39.6624Z" fill="#FF5B37"/>
<path d="M15.3347 46.0705C17.0386 46.0705 18.7425 46.055 20.4449 46.0829C20.8229 46.0892 21.2411 46.1808 21.5649 46.3655C22.059 46.6466 22.2046 47.1637 22.0853 47.7149C21.9722 48.2413 21.6408 48.5968 21.1079 48.7195C20.86 48.777 20.5983 48.7987 20.3427 48.7987C16.9751 48.8034 13.6075 48.8065 10.24 48.7956C9.91002 48.794 9.56149 48.7521 9.25479 48.6372C8.72967 48.4385 8.41057 47.822 8.48182 47.291C8.56702 46.6528 9.00075 46.1746 9.62965 46.1109C10.1408 46.0597 10.6582 46.0752 11.1725 46.0736C12.5604 46.0674 13.9468 46.0705 15.3347 46.0705Z" fill="#FF5B37"/>
</svg>
