<svg width="58" height="63" viewBox="0 0 58 63" fill="none" xmlns="http://www.w3.org/2000/svg">
<path d="M32.7028 33.811C32.9243 33.811 33.0818 33.811 33.2393 33.811C35.4929 33.811 37.7464 33.8066 40 33.8128C42.4102 33.8189 44.1887 35.6469 44.1397 38.0369C44.1371 38.1821 44.2412 38.3668 44.3533 38.4723C47.2456 41.1835 49.0811 44.4646 49.7163 48.358C49.9939 50.0628 50.122 51.7904 50.3177 53.5084C50.348 53.7688 50.3809 54.0292 50.4076 54.2482C51.0837 54.1523 51.735 53.9887 52.3889 53.9799C55.3978 53.9385 57.8276 56.3092 57.8738 59.2886C57.8809 59.7426 57.8836 60.1973 57.8729 60.6521C57.8534 61.4737 57.2964 62.0209 56.4655 62.0402C56.1541 62.0473 55.8427 62.042 55.5313 62.042C37.8434 62.042 20.1556 62.042 2.46858 62.042C1.18476 62.042 0.683869 61.4605 0.821771 60.1921C1.199 56.7253 1.57356 53.2577 1.92142 49.7883C2.29687 46.0471 3.66788 42.7273 6.15188 39.8728C6.38676 39.6027 6.43747 39.3458 6.43569 39.0045C6.43125 38.2208 6.36274 37.4027 6.55758 36.6594C7.00865 34.9431 8.59763 33.8225 10.393 33.8145C12.676 33.8049 14.9598 33.8119 17.2427 33.8119C17.4011 33.8119 17.5586 33.8119 17.8006 33.8119C17.6484 33.57 17.5328 33.3905 17.4207 33.2093C14.9117 29.1427 15.2089 23.6553 18.1395 19.9379C21.9643 15.0857 28.7152 15.1481 32.4546 20.0707C35.3407 23.8708 35.5462 29.3274 32.9573 33.3897C32.8799 33.5084 32.8105 33.6307 32.7028 33.811ZM43.5339 41.5177C42.9876 41.918 42.4378 41.998 41.8808 41.6726C41.3132 41.3409 41.1842 40.8034 41.2402 40.1894C41.307 39.4602 41.3648 38.7292 41.4084 37.9973C41.4475 37.3367 41.1264 36.7957 40.5472 36.6075C40.2598 36.5142 39.936 36.4957 39.629 36.4957C30.0355 36.4905 20.4429 36.4913 10.8494 36.4913C10.7009 36.4913 10.5523 36.4887 10.4046 36.501C9.52647 36.5767 9.02646 37.1757 9.08785 38.0501C9.4028 42.539 9.7133 47.0279 10.0265 51.516C10.0834 52.3279 10.1484 53.1389 10.2097 53.9438C20.2596 53.9438 30.2482 53.9438 40.2598 53.9438C40.2892 53.6184 40.3194 53.3149 40.3443 53.0105C40.3986 52.3384 40.4111 51.6611 40.5143 50.997C40.6246 50.2836 41.2874 49.8411 42.0107 49.9167C42.686 49.9871 43.2073 50.5765 43.2029 51.2802C43.2011 51.5432 43.17 51.8063 43.1522 52.0701C43.1104 52.6956 43.0677 53.321 43.0267 53.9359C44.0303 54.2719 44.283 54.6106 44.2732 55.6275C44.2616 56.8529 44.2331 58.0774 44.2118 59.3212C45.0499 59.3212 45.9938 59.3212 46.9867 59.3212C46.9956 58.2762 47.299 57.3252 47.8319 56.4412C47.8835 56.355 47.8551 56.2134 47.8435 56.099C47.7189 54.8745 47.6086 53.6483 47.4592 52.4264C47.2723 50.9002 47.1424 49.3608 46.8284 47.8592C46.3301 45.4762 45.1798 43.3896 43.5339 41.5177ZM25.2081 33.8119C26.3193 33.8119 27.4305 33.7978 28.5417 33.8207C28.8852 33.8277 29.1245 33.7125 29.3656 33.4908C32.7197 30.4173 32.9492 24.5359 29.8407 21.1668C27.1529 18.2533 23.0604 18.3211 20.4936 21.3497C18.8219 23.3219 18.2472 25.639 18.5194 28.1645C18.7472 30.2748 19.5959 32.1106 21.2107 33.5498C21.3762 33.6975 21.6484 33.7952 21.8744 33.8005C22.9856 33.8242 24.0969 33.811 25.2081 33.8119ZM41.5321 56.6989C30.6485 56.6989 19.8112 56.6989 8.94105 56.6989C8.94105 57.0526 8.94105 57.3727 8.94105 57.6929C8.94194 58.8655 9.42326 59.3397 10.6128 59.3397C20.3495 59.3397 30.0871 59.3397 39.8239 59.3397C39.9724 59.3397 40.121 59.3441 40.2687 59.3344C40.9502 59.2886 41.4742 58.8101 41.5258 58.1363C41.5605 57.6718 41.5321 57.203 41.5321 56.6989ZM6.74531 43.6817C6.63143 43.8436 6.58694 43.8981 6.55313 43.9579C5.64298 45.5395 4.99974 47.2241 4.77821 49.0292C4.41255 52.0077 4.11717 54.995 3.7951 57.9788C3.74706 58.4204 3.71325 58.8638 3.67144 59.3177C4.62073 59.3177 5.5033 59.3177 6.27822 59.3177C6.25242 58.1011 6.21772 56.9065 6.20349 55.7111C6.19103 54.6247 6.41167 54.3177 7.46328 53.9218C7.22841 50.5571 6.99086 47.1783 6.74531 43.6817ZM55.114 59.3221C55.1345 57.7739 53.8053 56.5828 52.2252 56.6752C50.6264 56.7684 49.5962 58.2999 49.7714 59.3221C51.541 59.3221 53.3124 59.3221 55.114 59.3221Z" fill="#FF5B37"/>
<path d="M26.4669 13.4436C25.5407 13.4348 24.9544 12.6184 25.1964 11.6578C25.9892 8.50601 26.7854 5.35506 27.5808 2.20411C27.6742 1.83465 27.7632 1.4652 27.8646 1.09838C28.0933 0.273254 28.7623 -0.146344 29.531 0.0463017C30.3006 0.239827 30.7089 0.931241 30.5052 1.74757C29.8629 4.31794 29.2098 6.88479 28.5603 9.45341C28.313 10.4325 28.0719 11.4133 27.8139 12.3897C27.636 13.0653 27.128 13.4497 26.4669 13.4436Z" fill="#FF5B37"/>
<path d="M19.5523 6.72556C20.3557 7.25512 21.1155 7.75653 21.8753 8.25705C22.3326 8.55878 22.5719 8.98189 22.5239 9.52289C22.434 10.5257 21.3433 11.1054 20.4821 10.5662C19.0559 9.67419 17.6529 8.74351 16.2685 7.78907C15.5087 7.26567 15.5221 6.16522 16.2836 5.64446C17.66 4.7041 19.055 3.78925 20.4598 2.89112C21.0924 2.48647 21.8922 2.68703 22.3006 3.29048C22.7205 3.91064 22.5737 4.7085 21.9296 5.15009C21.1653 5.67525 20.3842 6.17665 19.5523 6.72556Z" fill="#FF5B37"/>
<path d="M36.322 6.69659C35.6005 6.21805 34.8772 5.74039 34.1547 5.26098C33.3869 4.75165 33.1743 3.97579 33.6165 3.30109C34.0676 2.6132 34.8843 2.50148 35.6797 3.024C36.9377 3.85088 38.1957 4.67776 39.4502 5.50992C40.4662 6.18462 40.4653 7.26397 39.4475 7.94131C38.1815 8.78314 36.9119 9.61882 35.6396 10.4519C34.8861 10.9454 34.048 10.8143 33.6129 10.1457C33.1823 9.48247 33.3843 8.70485 34.1218 8.21136C34.8336 7.73547 35.5489 7.26573 36.2606 6.79159C36.2838 6.77751 36.2927 6.74409 36.322 6.69659Z" fill="#FF5B37"/>
<path d="M25.2641 44.5552C25.709 44.5552 26.1538 44.5464 26.5978 44.5569C27.3522 44.5754 27.9305 45.1234 27.9724 45.8456C28.0133 46.5458 27.4652 47.2038 26.7143 47.239C25.7383 47.2848 24.7579 47.2856 23.7819 47.2417C23.015 47.2065 22.5088 46.5925 22.5328 45.8527C22.5568 45.1243 23.1191 44.578 23.886 44.5569C24.3451 44.5446 24.8042 44.5552 25.2641 44.5552Z" fill="#FF5B37"/>
<path d="M43.5677 45.9011C43.5632 46.6294 42.9742 47.2311 42.2598 47.2355C41.4733 47.2408 40.8666 46.6593 40.8612 45.8958C40.8559 45.127 41.4627 44.5323 42.2385 44.5446C42.9956 44.5578 43.5721 45.1454 43.5677 45.9011Z" fill="#FF5B37"/>
</svg>
